# xmcd
#
# Track frame offsets: 
#        150
#        34267
#        65822
#        142212
#        203974
#
# Disc length: 3083 seconds
#
# Revision: 0
# Processed by: cddbd v1.5.1PL0 Copyright (c) Steve Scherf et al.
# Submitted via: ExactAudioCopy v0.95a5
#
DISCID=520c0905
DTITLE=Mick Taylor - Miami, 17 July 1993
DYEAR=1993
DGENRE=Blues
TTITLE0=Instrumental
TTITLE1=Bad Boy
TTITLE2=You Shook Me
TTITLE3=I Wonder Why
TTITLE4=Mercy, Mercy
EXTD=
EXTT0=
EXTT1=
EXTT2=
EXTT3=
EXTT4=
PLAYORDER=
